# xmcd
#
# Track frame offsets:
#	150
#	19635
#	38708
#	59700
#	73177
#	93235
#	112007
#	136197
#	163596
#	181585
#	196212
#
# Disc length: 2843 seconds
#
# Revision: 2
# Processed by: cddbd v1.4PL0 Copyright (c) Steve Scherf et al.
# Submitted via: audiograbber 1.82.02
#
DISCID=900b190b
DTITLE=Various Artist - Thredbos Legends Of Blues Festival 2001
DYEAR=2001
DGENRE=Blues
TTITLE0=A4 - Moments
TTITLE1=Bury My Body - Steve Tallis
TTITLE2=Sweet Home Cobargo - Damon Davies
TTITLE3=Inner City Blues - Cold Shot
TTITLE4=Country Rock - Kerri Simpson
TTITLE5=All Your Fault - Long John
TTITLE6=Whos The Blame - Bo Jenkins
TTITLE7=Rainin In My Heart - Kerrie Sweeney
TTITLE8=What U Got - Ray Beadle
TTITLE9=Price Is To High - Groundswell
TTITLE10=High Time Now - Papa Lips
EXTD=
EXTT0=
EXTT1=
EXTT2=
EXTT3=
EXTT4=
EXTT5=
EXTT6=
EXTT7=
EXTT8=
EXTT9=
EXTT10=
PLAYORDER=
